<svg viewBox="0 0 88.5882 79" xmlns="http://www.w3.org/2000/svg" xmlns:xlink="http://www.w3.org/1999/xlink" width="88.588196" height="79.000000" fill="none" customFrame="#000000">
	<g id="Logo">
		<path id="" d="M23.8586 62.0115L27.6202 42.1289L34.2784 42.1289L27.9845 70.5L21.5131 70.5L16.9649 51.8082L17.4507 51.6899L17.9366 51.8082L13.3883 70.5L6.91694 70.5L0.623079 42.1289L7.28074 42.1289L11.0615 61.9733L10.5704 62.0669L10.0833 61.9538L14.6849 42.1289L20.2548 42.1289L24.8371 61.9921L24.3499 62.1045L23.8586 62.0115ZM24.8412 62.1974L23.8627 62.2169L19.3698 42.7413L19.857 42.6289L19.857 43.1289L15.0821 43.1289L15.0821 42.6289L15.5691 42.742L11.0574 62.1799L10.0792 62.1605L6.37584 42.7225L6.867 42.6289L6.867 43.1289L1.24615 43.1289L1.24615 42.6289L1.73429 42.5206L7.80631 69.8917L7.31818 70L7.31818 69.5L12.9954 69.5L12.9954 70L12.5096 69.8818L16.9649 51.5717L17.9366 51.5717L22.3919 69.8818L21.9061 70L21.9061 69.5L27.5833 69.5L27.5833 70L27.0952 69.8917L33.1672 42.5206L33.6553 42.6289L33.6553 43.1289L28.0345 43.1289L28.0345 42.6289L28.5258 42.7219L24.8412 62.1974ZM60.6841 56.9348Q60.6841 61.088 59.2081 64.2343Q57.7165 67.4138 54.9307 69.1463Q52.1494 70.876 48.5665 70.876Q45.0229 70.876 42.2332 69.1668Q39.4386 67.4546 37.9085 64.2864Q36.3929 61.1485 36.3736 57.0876L36.3736 55.7317Q36.3736 51.5775 37.8787 48.4022Q39.3988 45.1951 42.1845 43.4726Q44.9654 41.7529 48.5289 41.7529Q52.0923 41.7529 54.8733 43.4726Q57.6589 45.1951 59.179 48.4022Q60.6841 51.5775 60.6841 55.7129L60.6841 56.9348ZM59.6841 56.9348L59.6841 55.7129Q59.6841 51.8025 58.2754 48.8305Q56.8817 45.8903 54.3473 44.3231Q51.8081 42.7529 48.5289 42.7529Q45.2496 42.7529 42.7104 44.3231Q40.176 45.8903 38.7823 48.8305Q37.3736 51.8025 37.3736 55.7317L37.3736 57.0828Q37.3918 60.9174 38.8089 63.8515Q40.2114 66.7553 42.7557 68.3141Q45.3049 69.876 48.5665 69.876Q51.8639 69.876 54.4026 68.2971Q56.9369 66.721 58.3028 63.8096Q59.6841 60.8651 59.6841 56.9348ZM53.9693 55.6941Q53.9693 51.5448 52.5161 49.4358Q51.8173 48.4217 50.8307 47.92Q49.8377 47.415 48.5289 47.415Q47.2285 47.415 46.2397 47.9137Q45.2573 48.4091 44.5588 49.41Q43.1065 51.491 43.0884 55.6023L43.0884 56.9348Q43.0884 60.9756 44.546 63.1619Q45.2456 64.2112 46.2409 64.73Q47.2414 65.2515 48.5665 65.2515Q49.8655 65.2515 50.8487 64.7493Q51.8256 64.2503 52.515 63.2416Q53.9512 61.1406 53.9693 57.0266L53.9693 55.6941ZM54.9693 55.6941L54.9693 57.031Q54.9498 61.4517 53.3406 63.806Q52.5073 65.025 51.3035 65.6398Q50.1061 66.2515 48.5665 66.2515Q46.9965 66.2515 45.7787 65.6168Q44.5558 64.9794 43.7139 63.7166Q42.0884 61.2784 42.0884 56.9348L42.0884 55.5979Q42.1079 51.1746 43.7387 48.8378Q44.5817 47.6298 45.7894 47.0208Q46.9906 46.415 48.5289 46.415Q50.0774 46.415 51.284 47.0286Q52.4968 47.6454 53.3395 48.8684Q54.9693 51.2336 54.9693 55.6941ZM74.2209 59.3617L71.2883 62.5199L70.9219 62.1797L71.4219 62.1797L71.4219 70.5L64.7823 70.5L64.7823 42.1289L71.4219 42.1289L71.4219 55.0361L70.9219 55.0361L70.518 54.7415L73.0036 51.3332L80.1326 42.1289L88.3541 42.1289L77.9861 55.1039L77.5955 54.7917L78.0133 54.517L88.5237 70.5L80.6118 70.5L73.4335 59.2911L73.8546 59.0215L74.2209 59.3617ZM73.9275 58.2082L81.3064 69.7303L80.8853 70L80.8853 69.5L87.5965 69.5L87.5965 70L87.1787 70.2747L76.9783 54.7632L86.9239 42.3168L87.3145 42.6289L87.3145 43.1289L80.3777 43.1289L80.3777 42.6289L80.773 42.9351L73.7987 51.9397L73.4034 51.6335L73.8074 51.9282L70.4219 56.5703L70.4219 42.6289L70.9219 42.6289L70.9219 43.1289L65.2823 43.1289L65.2823 42.6289L65.7823 42.6289L65.7823 70L65.2823 70L65.2823 69.5L70.9219 69.5L70.9219 70L70.4219 70L70.4219 61.9833L73.4882 58.6813L73.9275 58.2082Z" fill="rgb(253,216,53)" fill-rule="nonzero" />
		<path id="" d="M2.87335 33L2.87335 7.40625L11.8382 7.40625Q16.4964 7.40625 18.9046 9.19043Q21.3128 10.9746 21.3128 14.4199Q21.3128 16.3008 20.346 17.7334Q19.3792 19.166 17.6566 19.834Q19.6253 20.3262 20.7591 21.8203Q21.8929 23.3145 21.8929 25.4766Q21.8929 29.168 19.5374 31.0664Q17.1819 32.9648 12.8226 33L2.87335 33ZM8.14679 21.8555L8.14679 28.7637L12.6644 28.7637Q14.5276 28.7637 15.5735 27.876Q16.6194 26.9883 16.6194 25.4238Q16.6194 21.9082 12.9808 21.8555L8.14679 21.8555ZM8.14679 18.1289L12.0491 18.1289Q16.0394 18.0586 16.0394 14.9473Q16.0394 13.207 15.0286 12.4424Q14.0179 11.6777 11.8382 11.6777L8.14679 11.6777L8.14679 18.1289ZM41.2464 21.9082L31.1214 21.9082L31.1214 28.7637L43.0042 28.7637L43.0042 33L25.848 33L25.848 7.40625L42.9691 7.40625L42.9691 11.6777L31.1214 11.6777L31.1214 17.7773L41.2464 17.7773L41.2464 21.9082ZM59.3694 26.2852Q59.3694 24.791 58.3148 23.9912Q57.2601 23.1914 54.5179 22.3037Q51.7757 21.416 50.1761 20.5547Q45.8167 18.1992 45.8167 14.209Q45.8167 12.1348 46.9857 10.5088Q48.1546 8.88281 50.3431 7.96875Q52.5316 7.05469 55.2562 7.05469Q57.9984 7.05469 60.1429 8.04785Q62.2874 9.04102 63.4739 10.8516Q64.6605 12.6621 64.6605 14.9648L59.387 14.9648Q59.387 13.207 58.2796 12.2314Q57.1722 11.2559 55.1683 11.2559Q53.2347 11.2559 52.1624 12.0732Q51.0901 12.8906 51.0901 14.2266Q51.0901 15.4746 52.347 16.3184Q53.6038 17.1621 56.0472 17.9004Q60.5472 19.2539 62.6038 21.2578Q64.6605 23.2617 64.6605 26.25Q64.6605 29.5723 62.1468 31.4619Q59.6331 33.3516 55.3792 33.3516Q52.4261 33.3516 50.0003 32.2705Q47.5745 31.1895 46.3001 29.3086Q45.0257 27.4277 45.0257 24.9492L50.3167 24.9492Q50.3167 29.1855 55.3792 29.1855Q57.2601 29.1855 58.3148 28.4209Q59.3694 27.6562 59.3694 26.2852ZM87.4944 11.6777L79.6546 11.6777L79.6546 33L74.3812 33L74.3812 11.6777L66.6468 11.6777L66.6468 7.40625L87.4944 7.40625L87.4944 11.6777Z" fill="rgb(253,216,53)" fill-rule="nonzero" />
	</g>
</svg>
