<svg xmlns="http://www.w3.org/2000/svg" fill="none" viewBox="0 0 64 64">
	<path fill="#000" stroke="#fff" stroke-linecap="round" stroke-linejoin="round" stroke-width="2" d="M11.275 49a2.026 2.026 0 0 0 2.5 1.475 68.25 68.25 0 0 1 36.425 0A2.023 2.023 0 0 0 52.7 49l6.375-27.075a2 2 0 0 0-2.75-2.3l-12.65 5.625a2.025 2.025 0 0 1-2.575-.85l-7.35-13.25a1.999 1.999 0 0 0-3.5 0L22.9 24.4a2.025 2.025 0 0 1-2.575.85l-12.65-5.625a2 2 0 0 0-2.75 2.3L11.275 49Z"></path>
	<path stroke="#fff" stroke-linecap="round" stroke-linejoin="round" stroke-width="2" d="M24 40.425a74.419 74.419 0 0 1 16 0"></path>
</svg>