<svg viewBox="0 0 24 24" xmlns="http://www.w3.org/2000/svg" xmlns:xlink="http://www.w3.org/1999/xlink" width="36.000000" height="36.000000" fill="none">
	<rect id="delivery" width="24.000000" height="24.000000" x="0.000000" y="0.000000" />
	<path id="form1" d="M16.5 3.9375Q16.7812 3.9375 16.9219 4.07812Q17.0625 4.21875 17.0625 4.5L17.0625 6.1875L19.501 6.1875C19.7481 6.18765 19.9202 6.3014 20.0175 6.52875L20.1123 6.75L20.4114 7.4479L20.5 7.65458L21.6927 10.4375L21.8736 10.8596L21.9337 11L22.2675 11.7787C22.2974 11.8489 22.3124 11.9221 22.3125 11.9983L22.3125 17.25Q22.3125 17.5312 22.1719 17.6719Q22.0312 17.8125 21.75 17.8125L19.5 17.8125L19.5 16.6875L21.1875 16.6875L21.1875 12.5625L17.0625 12.5625L17.0625 15L15.9375 15L15.9375 5.0625L4.5 5.0625Q4.21875 5.0625 4.07812 4.92188Q3.9375 4.78125 3.9375 4.5Q3.9375 4.21875 4.07812 4.07812Q4.21875 3.9375 4.5 3.9375L16.5 3.9375ZM17.0625 11.4375L20.8966 11.4375L20.7091 11L20.468 10.4375L19.5573 8.3125L19.3764 7.8904L19.1287 7.3125L17.0625 7.3125L17.0625 11.4375ZM2.25 8.8125L9 8.8125Q9.28125 8.8125 9.42188 8.67188Q9.5625 8.53125 9.5625 8.25Q9.5625 7.96875 9.42188 7.82812Q9.28125 7.6875 9 7.6875L2.25 7.6875Q1.96875 7.6875 1.82812 7.82812Q1.6875 7.96875 1.6875 8.25Q1.6875 8.53125 1.82812 8.67188Q1.96875 8.8125 2.25 8.8125ZM4.75 11.4375L3.75 11.4375Q3.46875 11.4375 3.32812 11.5781Q3.1875 11.7188 3.1875 12Q3.1875 12.2812 3.32812 12.4219Q3.46875 12.5625 3.75 12.5625L12 12.5625Q12.2812 12.5625 12.4219 12.4219Q12.5625 12.2812 12.5625 12Q12.5625 11.7188 12.4219 11.5781Q12.2812 11.4375 12 11.4375L4.75 11.4375ZM10 16.6875L15 16.6875L15 17.8125L9 17.8125L9 16.6875L10 16.6875Z" fill="currentColor" fill-rule="evenodd" />
	<circle id="Ellipse1" cx="6.75" cy="17.25" r="1.9375" stroke="currentColor" stroke-width="1" />
	<circle id="Ellipse2" cx="17.25" cy="17.25" r="1.9375" stroke="currentColor" stroke-width="1" />
</svg>
