<svg xmlns="http://www.w3.org/2000/svg" fill="none" viewBox="0 0 24 24"><path fill="#0096DB" fill-rule="evenodd" d="M11.7 2.904c.683 0 1.243.56 1.243 1.244V8.77c0 .684-.56 1.244-1.243 1.244-.684 0-1.244-.56-1.244-1.244V4.148c0-.684.56-1.244 1.244-1.244ZM2.31 9.726c.212-.65.917-1.01 1.567-.798l4.397 1.428c.65.212 1.01.917.798 1.567a1.247 1.247 0 0 1-1.567.798L3.11 11.293a1.247 1.247 0 0 1-.798-1.567ZM5.897 20.764a1.247 1.247 0 0 1-.275-1.737l2.717-3.74a1.247 1.247 0 0 1 1.737-.274c.553.402.677 1.183.275 1.736l-2.717 3.74a1.247 1.247 0 0 1-1.737.275ZM17.503 20.764a1.247 1.247 0 0 1-1.737-.275l-2.717-3.74a1.247 1.247 0 0 1 .275-1.736 1.247 1.247 0 0 1 1.737.275l2.717 3.74a1.247 1.247 0 0 1-.275 1.736ZM21.09 9.726a1.247 1.247 0 0 1-.8 1.567l-4.395 1.428a1.247 1.247 0 0 1-1.567-.798 1.247 1.247 0 0 1 .798-1.567l4.396-1.428a1.247 1.247 0 0 1 1.567.798Z" clip-rule="evenodd"/></svg>