<svg xmlns="http://www.w3.org/2000/svg" fill="none" viewBox="0 0 24 24"><path fill="#FCCF00" fill-rule="evenodd" d="M1.5 12.375C1.5 6.806 6.174 2.25 12 2.25s10.5 4.556 10.5 10.125S17.826 22.5 12 22.5c-1.152 0-2.24-.19-3.265-.506.768-4.177 3.457-7.594 7.107-9.05.448.507 1.088.76 1.792.76a2.282 2.282 0 0 0 2.305-2.278 2.282 2.282 0 0 0-2.305-2.278 2.282 2.282 0 0 0-2.305 2.278c-4.61 1.329-8.323 4.43-10.244 8.416-.576-.506-1.152-1.076-1.6-1.772.128-3.86 2.113-7.277 5.058-9.302.448.506 1.088.76 1.728.76a2.282 2.282 0 0 0 2.305-2.279 2.282 2.282 0 0 0-2.305-2.278A2.282 2.282 0 0 0 7.966 7.25v.19c-2.753.95-5.057 2.784-6.402 5.19-.064 0-.064-.127-.064-.254Z" clip-rule="evenodd"/></svg>