<svg xmlns="http://www.w3.org/2000/svg" fill="none" viewBox="0 0 24 24"><path fill="#E60000" d="M8.407 2.933c2.452-.977 5.309-.91 7.696.226-.68-.104-1.372-.026-2.046.088-1.828.346-3.566 1.206-4.924 2.484-1.302 1.28-2.215 2.979-2.473 4.796-.17 1.288-.012 2.638.566 3.81a5.678 5.678 0 0 0 2.906 2.759c1.217.515 2.63.51 3.862.05 1.85-.68 3.18-2.512 3.332-4.47.095-1.284-.217-2.65-1.08-3.635-.823-.963-2.027-1.494-3.232-1.796-.064-1.189.495-2.363 1.383-3.135.493-.445 1.105-.728 1.738-.91l.048-.016a9.877 9.877 0 0 1 4.331 4.06 9.664 9.664 0 0 1 1.235 4.941c-.008 2.223-.839 4.423-2.263 6.122a9.738 9.738 0 0 1-5.283 3.254 9.789 9.789 0 0 1-6.198-.605 9.797 9.797 0 0 1-4.498-4.105 9.688 9.688 0 0 1-1.255-4.942 9.696 9.696 0 0 1 2.095-5.948 9.795 9.795 0 0 1 4.06-3.028Z"/><path fill="#fff" d="M14.057 3.247c.674-.114 1.365-.192 2.046-.088l.097.016-.065.025c-.633.181-1.245.465-1.738.91-.888.772-1.447 1.946-1.383 3.135 1.205.302 2.41.833 3.232 1.796.863.985 1.175 2.35 1.08 3.634-.153 1.958-1.482 3.792-3.332 4.47-1.233.46-2.645.466-3.862-.05a5.678 5.678 0 0 1-2.907-2.758c-.577-1.172-.735-2.522-.565-3.81C6.918 8.71 7.83 7.01 9.133 5.73c1.358-1.278 3.096-2.139 4.924-2.484Z"/></svg>