<svg viewBox="0 0 128 128" xmlns="http://www.w3.org/2000/svg" xmlns:xlink="http://www.w3.org/1999/xlink" width="128.000000" height="128.000000" fill="none" customFrame="#000000">
	<g id="icon">
		<rect id="Прямоугольник 33" width="128.000000" height="128.000000" x="0.000000" y="0.000000" rx="16.000000" fill="rgb(0,0,0)" />
		<g id="Logo">
			<path id="" d="M100.438 73.7344L107.328 37.3125L117.84 37.3125L106.484 88.5L95.8672 88.5L87.5352 54.2578L79.2031 88.5L68.5859 88.5L57.2305 37.3125L67.7422 37.3125L74.668 73.6641L83.1055 37.3125L92.0352 37.3125L100.438 73.7344Z" fill="rgb(253,216,53)" fill-rule="nonzero" />
			<path id="" d="M99.9462 73.6414L106.914 36.8125L118.463 36.8125L106.886 89L95.4743 89L87.0493 54.376L87.5352 54.2578L88.021 54.376L79.5961 89L68.1847 89L56.6074 36.8125L68.1559 36.8125L75.1591 73.5705L74.668 73.6641L74.1809 73.551L82.7082 36.8125L92.4329 36.8125L100.925 73.622L100.438 73.7344L99.9462 73.6414ZM100.929 73.8273L99.9503 73.8468L91.548 37.4249L92.0352 37.3125L92.0352 37.8125L83.1055 37.8125L83.1055 37.3125L83.5925 37.4255L75.155 73.7771L74.1768 73.7576L67.251 37.4061L67.7422 37.3125L67.7422 37.8125L57.2305 37.8125L57.2305 37.3125L57.7186 37.2042L69.0741 88.3917L68.5859 88.5L68.5859 88L79.2031 88L79.2031 88.5L78.7173 88.3818L87.0493 54.1396L88.021 54.1396L96.353 88.3818L95.8672 88.5L95.8672 88L106.484 88L106.484 88.5L105.996 88.3917L117.352 37.2042L117.84 37.3125L117.84 37.8125L107.328 37.8125L107.328 37.3125L107.819 37.4054L100.929 73.8273Z" fill="rgb(253,216,53)" fill-rule="nonzero" />
			<path id="" d="M14.5703 88L14.5703 36.8125L32.5 36.8125Q41.8164 36.8125 46.6328 40.3809Q51.4492 43.9492 51.4492 50.8398Q51.4492 54.6016 49.5156 57.4668Q47.582 60.332 44.1367 61.668Q48.0742 62.6523 50.3418 65.6406Q52.6094 68.6289 52.6094 72.9531Q52.6094 80.3359 47.8984 84.1328Q43.1875 87.9297 34.4688 88L14.5703 88ZM25.1172 65.7109L25.1172 79.5273L34.1523 79.5273Q37.8789 79.5273 39.9707 77.752Q42.0625 75.9766 42.0625 72.8477Q42.0625 65.8164 34.7852 65.7109L25.1172 65.7109ZM25.1172 58.2578L32.9219 58.2578Q40.9023 58.1172 40.9023 51.8945Q40.9023 48.4141 38.8809 46.8848Q36.8594 45.3555 32.5 45.3555L25.1172 45.3555L25.1172 58.2578Z" fill="rgb(253,216,53)" fill-rule="nonzero" />
			<path id="" d="M13.5703 35.8125L13.5703 89L34.4768 89Q43.5439 88.9268 48.526 84.9114Q49.7769 83.9032 50.7212 82.6616Q51.703 81.3708 52.3532 79.8278Q53.6094 76.8466 53.6094 72.9531Q53.6094 69.1767 51.9871 66.3223Q51.6072 65.6539 51.1384 65.0361Q50.3005 63.9319 49.2573 63.0787Q48.1106 62.1407 46.7158 61.5059Q47.8458 60.8095 48.775 59.9065Q49.6485 59.0576 50.3445 58.0262Q50.9252 57.1657 51.3457 56.2331Q52.4492 53.7852 52.4492 50.8398Q52.4492 47.1753 51.1534 44.3615Q50.6941 43.364 50.0748 42.4783Q48.9264 40.8356 47.2281 39.5774Q42.1465 35.8125 32.5 35.8125L13.5703 35.8125ZM45.594 62.1224Q44.8964 61.8579 44.1367 61.668Q44.865 61.3856 45.5257 61.0349Q47.0047 60.2498 48.1452 59.1224Q48.9056 58.3707 49.5156 57.4668Q50.0137 56.7287 50.3835 55.9311Q51.4492 53.6325 51.4492 50.8398Q51.4492 46.2322 49.2956 43.1101Q48.2286 41.5631 46.6328 40.3809Q41.8164 36.8125 32.5 36.8125L14.5703 36.8125L14.5703 88L34.4688 88Q43.1875 87.9297 47.8984 84.1328Q49.0513 83.2037 49.922 82.0598Q52.6094 78.5293 52.6094 72.9531Q52.6094 69.3467 51.0321 66.6695Q50.7182 66.1367 50.3418 65.6406Q49.6081 64.6738 48.6996 63.9167Q47.342 62.7853 45.594 62.1224ZM32.9219 57.2578L26.1172 57.2578L26.1172 46.3555L32.5 46.3555Q34.5615 46.3555 36.0418 46.7103Q37.4336 47.0438 38.2775 47.6823Q38.4533 47.8152 38.6099 47.9679Q39.1571 48.5016 39.4696 49.276Q39.9023 50.3484 39.9023 51.8945Q39.9023 53.2468 39.483 54.2351Q39.2813 54.7105 38.9779 55.1083Q38.6799 55.499 38.2838 55.8148Q36.5545 57.1936 32.9219 57.2578ZM26.1172 45.3555L32.5 45.3555Q36.8594 45.3555 38.8809 46.8848Q39.1632 47.0984 39.4061 47.35Q40.9023 48.9002 40.9023 51.8945Q40.9023 54.2337 39.7746 55.7134Q37.9024 58.1701 32.9219 58.2578L25.1172 58.2578L25.1172 45.3555L26.1172 45.3555ZM26.1172 65.7109L34.7852 65.7109Q38.5512 65.7655 40.3683 67.6749Q42.0625 69.4551 42.0625 72.8477Q42.0625 74.9823 41.0889 76.4869Q40.6354 77.1878 39.9707 77.752Q37.8789 79.5273 34.1523 79.5273L25.1172 79.5273L25.1172 65.7109L26.1172 65.7109ZM26.1172 66.7109L26.1172 78.5273L34.1523 78.5273Q37.5117 78.5273 39.3236 76.9895Q39.8985 76.5016 40.2814 75.8929Q40.4751 75.5848 40.6197 75.2459Q41.0625 74.2077 41.0625 72.8477Q41.0625 69.752 39.543 68.2618Q38.0093 66.7578 34.7707 66.7108L26.1172 66.7109Z" fill="rgb(253,216,53)" fill-rule="evenodd" />
		</g>
	</g>
</svg>
